<?xml version="1.0" encoding="iso-8859-1"?>
<!-- Generator: Adobe Illustrator 19.0.0, SVG Export Plug-In . SVG Version: 6.00 Build 0)  -->
<svg version="1.1" id="Layer_1" xmlns="http://www.w3.org/2000/svg" xmlns:xlink="http://www.w3.org/1999/xlink" x="0px" y="0px"
	 viewBox="0 0 512 512" style="enable-background:new 0 0 512 512;" xml:space="preserve">
<path style="fill:#A8EAEF;" d="M497.559,163.289L368.481,34.211c-19.253-19.253-50.47-19.253-69.723,0L14.44,318.529
	c-19.253,19.253-19.253,50.47,0,69.723l103.975,103.975h119.928l259.216-259.216C516.813,213.759,516.813,182.542,497.559,163.289z"
	/>
<path style="fill:#80CDD8;" d="M497.56,163.289L433.021,98.75L78.979,452.792l39.436,39.436h119.928l259.216-259.216
	C516.813,213.759,516.813,182.542,497.56,163.289z"/>
<path style="fill:#E06B34;" d="M14.44,318.529c-19.253,19.253-19.253,50.47,0,69.723l103.975,103.975h119.928L355.4,375.171
	L156.599,176.37L14.44,318.529z"/>
<polygon style="fill:#D1393C;" points="78.979,452.792 118.415,492.229 238.343,492.229 355.4,375.171 255.999,275.771 "/>
<g>
</g>
<g>
</g>
<g>
</g>
<g>
</g>
<g>
</g>
<g>
</g>
<g>
</g>
<g>
</g>
<g>
</g>
<g>
</g>
<g>
</g>
<g>
</g>
<g>
</g>
<g>
</g>
<g>
</g>
</svg>
